<svg width="32" height="32" viewBox="0 0 32 32" fill="none" xmlns="http://www.w3.org/2000/svg">
<path d="M13 26.9998V18.9998H19V26.9998H27V14.9998C27.0001 14.8684 26.9743 14.7384 26.9241 14.617C26.8739 14.4956 26.8003 14.3852 26.7075 14.2923L16.7075 4.29231C16.6146 4.19933 16.5043 4.12557 16.3829 4.07525C16.2615 4.02493 16.1314 3.99902 16 3.99902C15.8686 3.99902 15.7385 4.02493 15.6171 4.07525C15.4957 4.12557 15.3854 4.19933 15.2925 4.29231L5.2925 14.2923C5.19967 14.3852 5.12605 14.4956 5.07586 14.617C5.02568 14.7384 4.9999 14.8684 5 14.9998V26.9998H13Z" stroke="#7130D5" stroke-width="2" stroke-linecap="round" stroke-linejoin="round"/>
</svg>