<svg width="32" height="32" viewBox="0 0 32 32" fill="none" xmlns="http://www.w3.org/2000/svg">
<path opacity="0.2" d="M25 16C25 17.0609 25.4214 18.0783 26.1716 18.8284C26.9217 19.5786 27.9391 20 29 20V24C29 24.2652 28.8946 24.5196 28.7071 24.7071C28.5196 24.8946 28.2652 25 28 25H12V7H28C28.2652 7 28.5196 7.10536 28.7071 7.29289C28.8946 7.48043 29 7.73478 29 8V12C27.9391 12 26.9217 12.4214 26.1716 13.1716C25.4214 13.9217 25 14.9391 25 16Z" fill="#7130D5"/>
<path d="M29 13C29.2652 13 29.5196 12.8946 29.7071 12.7071C29.8946 12.5196 30 12.2652 30 12V8C30 7.46957 29.7893 6.96086 29.4142 6.58579C29.0391 6.21071 28.5304 6 28 6H4C3.46957 6 2.96086 6.21071 2.58579 6.58579C2.21071 6.96086 2 7.46957 2 8V12C2 12.2652 2.10536 12.5196 2.29289 12.7071C2.48043 12.8946 2.73478 13 3 13C3.79565 13 4.55871 13.3161 5.12132 13.8787C5.68393 14.4413 6 15.2044 6 16C6 16.7956 5.68393 17.5587 5.12132 18.1213C4.55871 18.6839 3.79565 19 3 19C2.73478 19 2.48043 19.1054 2.29289 19.2929C2.10536 19.4804 2 19.7348 2 20V24C2 24.5304 2.21071 25.0391 2.58579 25.4142C2.96086 25.7893 3.46957 26 4 26H28C28.5304 26 29.0391 25.7893 29.4142 25.4142C29.7893 25.0391 30 24.5304 30 24V20C30 19.7348 29.8946 19.4804 29.7071 19.2929C29.5196 19.1054 29.2652 19 29 19C28.2044 19 27.4413 18.6839 26.8787 18.1213C26.3161 17.5587 26 16.7956 26 16C26 15.2044 26.3161 14.4413 26.8787 13.8787C27.4413 13.3161 28.2044 13 29 13ZM4 20.9C5.13029 20.6705 6.14647 20.0573 6.87638 19.1643C7.60628 18.2712 8.00501 17.1534 8.00501 16C8.00501 14.8466 7.60628 13.7288 6.87638 12.8357C6.14647 11.9427 5.13029 11.3295 4 11.1V8H11V24H4V20.9ZM28 20.9V24H13V8H28V11.1C26.8697 11.3295 25.8535 11.9427 25.1236 12.8357C24.3937 13.7288 23.995 14.8466 23.995 16C23.995 17.1534 24.3937 18.2712 25.1236 19.1643C25.8535 20.0573 26.8697 20.6705 28 20.9Z" fill="#7130D5"/>
</svg>